<svg width="1280" height="1032" viewBox="0 0 1280 1032" fill="none" xmlns="http://www.w3.org/2000/svg">
<g clip-path="url(#clip0_3_18)">
<mask id="mask0_3_18" style="mask-type:luminance" maskUnits="userSpaceOnUse" x="0" y="-248" width="1280" height="1280">
<path d="M1279.59 -248H0V1031.59H1279.59V-248Z" fill="white"/>
</mask>
<g mask="url(#mask0_3_18)">
<path d="M1279.59 -248.002H0V1031.59H1279.59V-248.002Z" fill="url(#paint0_linear_3_18)"/>
<path d="M0 37.4493H14.4312L28.8548 37.3648L43.1785 34.6547L57.62 35.1793L72.0384 35.1614L86.4338 34.6265L100.786 32.8095L115.186 32.4384L129.658 33.9586L144.028 32.592L158.444 32.5357L172.806 31.059L187.186 30.0789L201.656 31.5504L216.013 29.9381L230.393 29.091L244.822 29.4979L259.181 28.0597L273.615 28.6559L287.946 26.5037L302.403 27.7423L316.77 26.7468L331.13 25.2446L345.571 26.1147L359.903 23.6835L374.301 23.3021L388.77 24.9298L403.163 24.2644L417.513 22.4934L431.903 21.8613L446.316 21.9381L460.66 19.9189L475.058 19.5657L489.53 21.3213L503.926 20.8325L518.239 18.0891L532.653 18.1172L547.045 17.6515L561.428 16.8479L575.893 18.3297L590.198 15.4173L604.637 16.2388L618.982 14.3834L633.438 15.6835L647.849 15.7398L662.221 14.6931L676.548 12.4077L690.982 12.9272L705.395 13.114L719.78 12.4691L734.158 11.6297L748.578 11.9138L762.925 10.1607L777.339 10.3757L791.734 10.0635L806.137 9.97137L820.474 7.8626L834.874 7.65531L849.246 6.65211L863.665 7.03599L878.014 5.52351L892.425 5.68986L906.869 6.68794L921.259 6.15819L935.639 5.38532L950.007 4.37188L964.343 2.55486L978.736 2.24264L993.113 1.49024L1007.57 2.90291L1021.96 2.20425L1036.33 1.23688L1050.74 1.50559L1065.06 -0.830938L1079.5 0.266953L1093.88 -0.395877L1108.25 -1.25832L1122.58 -3.21865L1136.99 -3.30311L1151.38 -3.88404L1165.82 -2.71193L1180.14 -5.05871L1194.57 -4.16043L1208.97 -4.40611L1223.32 -6.03631L1237.75 -5.40419L1252.11 -6.73497L1266.5 -7.36197L1275.35 -7.50016L1266.19 -8.8079L1252.08 -8.91539L1237.63 -8.21673L1223.31 -10.909L1208.83 -9.6166L1194.51 -12.0248L1180.1 -12.3089L1165.73 -13.417L1151.32 -13.7983L1136.93 -14.5993L1122.5 -14.369L1108.04 -13.2634L1093.63 -13.6422L1079.29 -15.7791L1064.93 -17.3172L1050.52 -17.3095L1036.1 -17.3658L1021.68 -17.1636L1007.35 -19.4413L992.911 -18.7299L978.503 -18.9064L964.159 -20.5136L949.733 -20.3063L935.348 -21.1457L920.973 -22.1899L906.523 -21.4451L892.182 -23.3645L877.802 -24.3575L863.378 -24.1272L849.008 -25.4119L834.616 -25.9749L820.187 -25.7267L805.797 -26.346L791.406 -27.019L776.991 -26.9832L762.6 -27.6512L748.19 -27.8098L733.876 -30.4202L719.409 -29.0101L705.011 -29.4068L690.631 -30.3972L676.21 -30.1847L661.907 -33.005L647.437 -31.6947L633.116 -34.0542L618.667 -33.0357L604.323 -34.868L589.904 -34.7938L575.481 -34.5405L561.177 -37.1969L546.787 -37.8239L532.343 -37.1304L517.978 -38.3588L503.593 -38.9397L489.18 -38.9141L474.792 -39.4771L460.407 -40.163L445.976 -39.8533L431.621 -41.2865L417.267 -42.5584L402.843 -42.2103L388.474 -43.2263L374.027 -42.4176L359.652 -43.4157L345.303 -44.9691L330.92 -45.6192L316.476 -44.6057L302.093 -45.2865L287.783 -47.71L273.344 -47.1265L258.992 -48.6467L244.573 -48.4803L230.145 -47.9122L215.762 -48.5187L201.415 -49.9851L187.033 -50.543L172.65 -51.1444L158.224 -50.7196L143.875 -52.4496L129.484 -52.9563L115.084 -53.1406L100.732 -54.4842L86.3033 -53.7702L72.0026 -56.6646L57.6149 -57.2762L43.1836 -56.8335L28.7396 -55.9762L14.3749 -57.1943L0 -59.3569V37.4493Z" fill="#FD6E26"/>
<path d="M1251.04 149.427L1236.67 148.705L1222.34 148.519L1208.09 150.185L1193.79 150.689L1179.46 150.719L1165.15 151.167L1150.9 152.938L1136.61 153.901L1122.3 154.29L1107.98 154.187L1093.7 155.357L1079.35 154.776L1065.06 155.743L1050.77 156.626L1036.47 157.399L1022.21 158.937L1007.91 159.477L993.61 160.124L979.23 158.812L964.958 160.109L950.693 161.727L936.382 162.231L922.079 162.806L907.783 163.472L893.49 164.258L879.171 164.529L864.83 164.304L850.486 164.037L836.28 166.919L821.907 165.883L807.635 167.211L793.321 167.623L779 167.93L764.727 169.304L750.35 168.163L736.088 169.785L721.746 169.586L707.432 170.039L693.221 172.818L678.857 172.032L664.533 172.273L650.201 172.357L635.944 174.082L621.659 175.157L607.363 176.086L593.006 175.533L578.747 177.248L564.423 177.529L550.127 178.328L535.829 179.208L521.521 179.797L507.215 180.465L492.899 180.885L478.578 181.163L464.303 182.727L449.958 182.443L435.606 182.105L421.288 182.43L407.036 184.426L392.651 183.318L378.437 186.156L364.111 186.336L349.738 185.307L335.535 188.362L321.201 188.281L306.834 187.48L292.582 189.348L278.268 189.972L263.962 190.563L249.656 191.334L235.266 190.151L221.04 192.708L206.716 193.066L192.367 192.818L178.022 192.69L163.757 194.507L149.485 196.02L135.115 195.18L120.812 196.02L106.549 197.862L92.2309 198.558L77.8432 197.448L63.5578 199.019L49.0447 199.155L63.5194 199.579L77.7843 201.21L92.108 201.266L106.427 201.056L120.702 202.192L135.041 201.629L149.331 202.479L163.632 203.08L177.94 203.436L192.264 203.252L206.544 204.288L220.866 204.194L235.107 206.19L249.421 206.33L263.732 206.604L278.025 207.533L292.349 207.477L306.637 208.355L320.981 207.638L335.271 208.327L349.526 210.151L363.87 209.491L378.112 211.738L392.454 211.311L406.747 212.048L421.055 212.337L435.34 213.279L449.61 214.758L463.955 214.133L478.273 214.392L492.615 213.755L506.862 215.848L521.221 214.76L535.443 217.706L549.797 216.79L564.088 217.727L578.399 218.041L592.692 218.888L606.969 220.286L621.313 219.787L635.601 220.667L649.94 220.183L664.246 220.862L678.59 220.316L692.871 221.504L707.177 222.095L721.482 222.714L735.76 223.879L750.094 223.679L764.39 224.703L778.685 225.414L793.006 225.645L807.266 227.451L821.572 228.002L835.97 226.1L850.248 227.416L864.597 226.914L878.862 228.536L893.157 229.578L907.456 230.405L921.779 230.476L936.131 229.816L950.406 231.341L964.692 232.455L979.043 231.549L993.288 233.921L1007.68 231.986L1021.92 234.348L1036.28 233.271L1050.57 234.576L1064.89 234.612L1079.14 236.864L1093.45 237.527L1107.83 235.917L1122.11 237.491L1136.4 238.584L1150.7 239.733L1165.06 238.686L1179.39 238.679L1193.65 240.577L1208.01 239.881L1222.35 239.774L1236.66 240.513L1250.98 240.81L1265.23 243.646L1279.59 243.549V147.912L1265.26 147.032L1251.04 149.427Z" fill="#FFA442"/>
<path d="M0 226.434V331.995L14.1702 329.418L28.4786 329.319L42.7127 328.236L57.0646 328.901L71.2092 326.439L85.5048 326.327L99.8209 326.59L114.037 325.255L128.166 322.549L142.472 322.619L156.783 322.744L170.933 320.392L185.126 318.716L199.491 319.711L213.735 318.836L227.898 316.763L242.106 315.335L256.456 316.182L270.679 315.033L284.801 312.359L299.112 312.556L313.382 312.239L327.514 309.664L341.861 310.516L356.108 309.695L370.204 306.549L384.581 307.77L398.851 307.361L412.919 303.803L427.22 303.816L441.5 303.532L455.777 303.21L469.999 302.043L484.269 301.613L498.503 300.64L512.683 298.859L526.831 296.492L541.129 296.561L555.36 295.568L569.684 296.021L583.888 294.547L598.012 291.929L612.392 293.232L626.654 292.668L640.857 291.269L655.061 289.925L669.241 288.08L683.475 287.084L697.807 287.737L711.982 285.897L726.252 285.51L740.453 284.065L754.631 282.235L768.967 282.921L783.097 280.43L797.31 279.24L811.586 278.9L825.889 279.025L840.159 278.68L854.352 277.175L868.55 275.801L882.813 275.338L896.942 272.732L911.266 273.203L925.456 271.632L939.696 270.872L953.984 270.918L968.097 268.198L982.46 269.288L996.666 267.944L1010.91 267.192L1025.07 265.155L1039.29 264.049L1053.62 264.735L1067.88 264.31L1082.06 262.741L1096.32 262.317L1110.4 258.972H1124.69L1139.02 259.525L1151.98 257.743L1138.72 258.296L1124.32 256.633L1109.88 256.896L1095.5 254.885L1081.05 255.527L1066.61 255.606L1052.2 255.013L1037.79 254.304L1023.36 254.429L1008.93 254.26L994.529 253.047L980.103 252.886L965.666 253.17L951.235 253.224L936.834 252.129L922.403 252.31L908.018 250.703L893.625 249.523L879.207 249.221L864.781 249.357L850.329 250.301L835.975 247.85L821.497 249.774L807.081 249.39L792.722 246.787L778.239 248.832L763.88 246.255L749.428 247.217L735.015 246.7L720.596 246.245L706.173 246.171L691.79 244.548H677.364L662.933 244.738L648.497 245.116L634.091 244.487L619.719 242.324L605.267 243.31L590.879 242.043L576.415 243.494L562.058 240.886L547.601 242.199L533.208 241.045L518.813 239.827L504.343 241.523L489.96 240.054L475.557 239.31L461.157 238.276L446.746 237.887L432.31 238.442L417.909 237.651L403.481 237.697L389.085 236.564L374.659 236.822L360.279 235.368L345.861 235.299L331.445 234.979L317.019 234.992L302.6 234.946L288.2 234.237L273.748 235.56L259.358 234.329L244.929 234.677L230.513 234.255L216.128 232.983L201.707 233.111L187.322 231.942L172.888 232.594L158.49 231.773L144.069 231.637L129.651 231.53L115.242 231.107L100.827 231.023L86.4671 228.901L72.0154 230.248L57.6584 228.118L43.2399 228.144L28.7934 229.214L14.444 226.358L0 226.434Z" fill="#FD7E2E"/>
<path d="M1265.18 274.902L1250.88 277.182L1236.51 278.07L1222.14 278.794L1207.66 277.377L1193.32 278.513L1178.92 278.605L1164.65 281.192L1150.18 279.892L1135.91 282.771L1121.52 282.966L1107.15 283.631L1092.7 282.603L1078.41 284.855L1064 284.686L1049.61 284.847L1035.24 285.579L1020.87 286.119L1006.57 288.115L992.161 287.777L977.827 289.113L963.442 289.323L949.085 290.086L934.767 291.762L920.353 291.508L906.05 293.515L891.642 293.295L877.308 294.713L862.894 294.334L848.527 295.038L834.16 295.713L819.834 297.231L805.405 296.542L791.02 296.806L776.727 298.999L762.344 299.265L748.023 300.898L733.559 299.503L719.278 301.901L704.932 302.958L690.557 303.414L676.182 303.877L661.863 305.443L647.401 304.12L633.067 305.41L618.702 305.999L604.335 306.585L589.988 307.682L575.614 308.031L561.274 309.203L546.917 309.947L532.599 311.624L518.127 309.958L503.872 312.893L489.469 312.645L475.127 313.699L460.755 314.155L446.424 315.521L432.056 316.105L417.628 315.245L403.255 315.619L388.893 316.222L374.549 317.292L360.258 319.514L345.858 319.334L331.498 319.987L317.095 319.621L302.749 320.494L288.45 322.457L274.07 322.71L259.741 324.133L245.295 322.984L230.933 323.506L216.583 324.304L202.229 324.957L187.967 327.58L173.587 327.772L159.171 327.281L145.3 328.765L159.058 330.124L173.29 331.363L187.473 332.97L201.538 335.711L215.892 335.695L230.096 337.036L244.215 339.206L258.482 339.959L272.673 341.482L286.925 342.418L301.042 344.617L315.102 347.329L329.295 348.788L343.57 349.479L357.707 351.473L371.805 353.822L385.981 355.427L400.307 355.578L414.472 357.267L428.66 358.72L442.746 361.154L456.896 362.958L471.317 362.231L485.379 364.855L499.642 365.622L513.651 368.814L527.892 369.796L542.093 371.171L556.187 373.538L570.421 374.59L584.839 373.901L599.025 375.404L613.162 377.384L627.327 379.058L641.338 382.216L655.734 381.707L669.884 383.567L683.997 385.725L698.065 388.292L712.456 387.862L726.536 390.354L740.719 391.839L754.946 392.952L769.021 395.498L783.212 396.939L797.479 397.612L811.706 398.674L825.73 401.748L839.918 403.168L854.283 402.953L868.45 404.568L882.47 407.631L896.635 409.308L911.033 408.737L925.042 411.864L939.312 412.491L953.602 412.993L967.537 416.865L981.93 416.361L995.997 418.881L1010.13 420.852L1024.35 421.914L1038.68 422.065L1052.67 425.361L1066.92 426.221L1080.95 429.034L1095.4 428.033L1109.35 431.616L1123.62 432.294L1137.75 434.239L1151.87 436.317L1166.25 436.02L1180.46 437.167L1194.53 439.608L1208.72 441.024L1222.95 441.991L1237.07 443.961L1251.32 444.837L1265.5 446.354L1279.59 448.153V274.15L1265.18 274.902Z" fill="#FFBE6D"/>
<g opacity="0.1">
<path d="M109.551 307.547C109.602 311.711 109.656 315.877 109.71 320.046C110.063 324.22 110.419 328.394 110.772 332.568C112.379 336.597 113.976 340.63 115.57 344.666C116.187 348.832 116.804 353.001 117.418 357.17C118.296 361.323 119.169 365.482 120.041 369.641C121.405 373.71 122.767 377.784 124.118 381.863C126.554 385.638 128.978 389.421 131.386 393.213C132.814 397.267 134.237 401.326 135.652 405.387C137.006 409.508 138.355 413.631 139.698 417.761C141.991 421.549 144.274 425.344 146.544 429.149C148.476 433.096 150.398 437.047 152.312 441.009C155.289 444.456 158.25 447.916 161.195 451.391C163.212 455.325 165.221 459.268 167.222 463.222C169.569 467.012 171.906 470.813 174.232 474.623C177.175 478.048 180.103 481.487 183.02 484.937C185.771 488.487 188.51 492.049 191.235 495.624C194.178 499.036 197.106 502.462 200.023 505.904C202.552 509.689 205.07 513.492 207.578 517.308C211.273 520.046 214.956 522.803 218.629 525.574C221.492 529.108 224.343 532.658 227.189 536.22C230.559 539.24 233.917 542.278 237.267 545.326C240.512 548.497 243.747 551.683 246.977 554.885C250.132 558.217 253.285 561.564 256.428 564.927C260.374 567.138 264.312 569.359 268.246 571.591C271.724 574.473 275.199 577.367 278.667 580.272C282.03 583.422 285.387 586.585 288.74 589.764C292.707 591.775 296.671 593.792 300.632 595.821C304.238 598.575 307.842 601.339 311.442 604.118C315.225 606.513 319.005 608.922 322.782 611.338C326.639 613.572 330.493 615.814 334.342 618.063C338.355 619.793 342.368 621.528 346.378 623.271C350.296 625.321 354.214 627.376 358.13 629.436C362.124 631.225 366.119 633.014 370.112 634.81C374.263 635.716 378.411 636.627 382.559 637.536C386.557 639.34 390.552 641.149 394.547 642.961C398.616 644.397 402.682 645.833 406.749 647.271C410.89 647.767 415.03 648.266 419.169 648.763C423.276 649.503 427.381 650.245 431.486 650.987C435.596 652.044 439.706 653.101 443.813 654.158C447.926 654.544 452.036 654.928 456.149 655.312C460.274 655.88 464.4 656.451 468.527 657.021C472.535 656.266 476.548 655.512 480.563 654.757C484.745 655.568 488.924 656.382 493.103 657.196C497.003 655.959 500.909 654.723 504.822 653.49C508.957 653.669 513.093 653.848 517.229 654.03C521.07 652.704 524.916 651.381 528.773 650.053C532.684 649.101 536.599 648.149 540.522 647.197C544.492 646.409 548.466 645.623 552.448 644.835C556.44 644.016 560.438 643.192 564.443 642.37C568.223 640.822 572.013 639.271 575.811 637.72C579.78 636.615 583.755 635.506 587.739 634.398C591.481 632.62 595.235 630.841 599 629.062C602.419 626.524 605.853 623.982 609.3 621.444C613.047 619.581 616.806 617.71 620.579 615.842C624.256 613.748 627.947 611.652 631.652 609.551C635.174 607.094 638.71 604.632 642.26 602.165C645.464 599.138 648.686 596.11 651.921 593.073C655.258 590.229 658.606 587.381 661.976 584.525C665.201 581.474 668.44 578.419 671.701 575.355C675.23 572.638 678.774 569.912 682.339 567.176C685.712 564.159 689.103 561.129 692.512 558.091C695.686 554.762 698.879 551.419 702.089 548.069C704.737 544.149 707.407 540.22 710.089 536.284C712.643 532.274 715.21 528.254 717.789 524.226C720.963 520.719 724.149 517.203 727.353 513.671C729.899 509.59 732.461 505.5 735.035 501.398C737.59 497.293 740.159 493.175 742.739 489.047C744.983 484.709 747.24 480.359 749.508 476C752.223 471.901 754.951 467.785 757.689 463.66C759.9 459.225 762.119 454.78 764.348 450.324C766.606 445.871 768.868 441.405 771.146 436.929C773.103 432.307 775.066 427.675 777.042 423.036C778.393 418.191 779.752 413.344 781.116 408.487C782.368 403.634 783.624 398.774 784.886 393.912C786.603 389.162 788.325 384.402 790.055 379.634C792.082 374.877 794.117 370.109 796.156 365.331C796.264 360.287 796.374 355.245 796.481 350.201C797.835 345.298 799.192 340.389 800.548 335.473C801.845 330.511 803.143 325.544 804.446 320.571C804.034 315.616 803.622 310.67 803.204 305.723C803.652 300.771 804.098 295.819 804.543 290.864C804.714 285.933 804.891 280.998 805.062 276.069C804.817 271.204 804.571 266.339 804.323 261.48C804.254 256.591 804.179 251.703 804.108 246.818C804.689 241.738 805.275 236.658 805.861 231.575C804.115 227.128 802.37 222.685 800.625 218.247C800.138 213.454 799.657 208.658 799.171 203.867C798.516 199.11 797.863 194.355 797.206 189.602C795.964 185.073 794.721 180.548 793.477 176.023C791.847 171.688 790.214 167.355 788.584 163.025C787.701 158.311 786.818 153.597 785.932 148.886C783.552 144.975 781.165 141.067 778.777 137.162C776.742 133.091 774.7 129.021 772.655 124.952C771.25 120.456 769.843 115.959 768.433 111.465C766.447 107.314 764.456 103.163 762.46 99.0125C759.726 95.4015 756.988 91.7904 754.247 88.1794C752.013 84.1641 749.776 80.1487 747.535 76.1308C743.895 73.3157 740.249 70.4981 736.597 67.6804C733.797 64.141 730.992 60.6017 728.177 57.0624C725.482 53.3746 722.78 49.6842 720.064 45.9939C716.96 42.667 713.848 39.34 710.728 36.0105C706.731 33.6791 702.726 31.3477 698.71 29.0163C695.412 25.8634 692.1 22.7105 688.778 19.5576C685.009 16.9549 681.229 14.3547 677.439 11.7521C673.39 9.53069 669.331 7.30931 665.262 5.08794C661.723 2.05019 658.173 -0.990103 654.608 -4.03041C650.57 -6.37718 646.521 -8.72395 642.457 -11.0682C637.735 -12.1968 633.006 -13.3279 628.269 -14.4565C624.09 -16.6165 619.898 -18.7739 615.691 -20.9261C611.01 -22.0547 606.319 -23.1833 601.62 -24.3094C597.449 -26.738 593.262 -29.1641 589.06 -31.5877C584.01 -31.7361 578.956 -31.8846 573.902 -32.033C569.29 -33.4533 564.666 -34.8711 560.034 -36.2838C555.12 -36.6881 550.201 -37.0899 545.275 -37.4917C540.451 -38.2646 535.614 -39.0323 530.774 -39.7975C525.979 -41.0004 521.17 -42.1981 516.353 -43.3881C511.309 -43.0272 506.265 -42.6638 501.221 -42.303C496.282 -43.1731 491.337 -44.0381 486.385 -44.898C481.346 -44.6881 476.307 -44.4783 471.263 -44.2659C466.229 -43.7822 461.193 -43.2959 456.159 -42.8097C451.184 -41.6555 446.211 -40.5039 441.241 -39.3574C436.3 -38.3414 431.358 -37.3305 426.421 -36.3222C421.339 -36.2198 416.254 -36.1174 411.166 -36.0125C406.35 -34.3951 401.538 -32.7828 396.732 -31.1808C391.79 -30.2006 386.851 -29.2255 381.915 -28.2505C377.009 -27.0912 372.105 -25.9344 367.204 -24.7828C362.406 -23.2883 357.61 -21.7988 352.817 -20.317C348.476 -17.7783 344.144 -15.255 339.813 -12.7444C335.02 -11.3138 330.227 -9.88838 325.439 -8.46803C320.852 -6.58959 316.272 -4.72139 311.693 -2.86086C307.604 -0.176282 303.519 2.49294 299.437 5.14937C294.759 6.8589 290.083 8.5582 285.408 10.2549C281.257 12.7425 277.106 15.2172 272.96 17.6791C268.788 20.1155 264.62 22.539 260.453 24.9498C256.556 27.6855 252.661 30.4085 248.768 33.1187C244.858 35.8084 240.947 38.4878 237.039 41.157C233.085 43.8007 229.134 46.4341 225.18 49.0572C221.656 52.0899 218.132 55.1123 214.608 58.127C211.657 61.5947 208.707 65.0496 205.756 68.4968C202.713 71.8237 199.67 75.143 196.63 78.452C192.863 81.2492 189.096 84.0361 185.328 86.818C182.506 90.2652 179.685 93.7047 176.865 97.1366C173.915 100.484 170.964 103.824 168.016 107.158C165.103 110.531 162.188 113.897 159.279 117.257C156.799 120.855 154.319 124.448 151.842 128.036C149.81 131.826 147.78 135.614 145.753 139.396C143.834 143.207 141.917 147.012 140.005 150.815C137.359 154.342 134.716 157.863 132.072 161.385C130.344 165.259 128.62 169.137 126.9 173.009C126.017 177.124 125.137 181.239 124.259 185.354C122.401 189.175 120.548 192.993 118.7 196.814C117.551 200.824 116.405 204.835 115.263 208.845C113.858 212.806 112.456 216.768 111.058 220.732C110.47 224.85 109.884 228.965 109.303 233.083C108.597 237.178 107.898 241.272 107.202 245.364C106.69 249.487 106.181 253.61 105.677 257.733C106.278 261.925 106.882 266.122 107.481 270.316C106.534 274.434 105.589 278.547 104.653 282.664C104.878 286.833 105.106 291.005 105.334 295.176C106.744 299.297 108.151 303.419 109.551 307.547Z" fill="white"/>
</g>
<g opacity="0.1">
<path d="M209.229 307.299C209.393 311.537 209.562 315.775 209.733 320.013C210.261 324.256 210.79 328.501 211.318 332.75C212.211 336.975 213.099 341.205 213.982 345.436C215.663 349.512 217.334 353.597 218.993 357.689C221.283 361.571 223.558 365.466 225.815 369.372C226.749 373.679 227.678 377.993 228.605 382.311C231.09 386.101 233.554 389.906 236.001 393.727C238.181 397.635 240.344 401.556 242.491 405.489C244.953 409.269 247.399 413.07 249.828 416.883C252.106 420.803 254.366 424.739 256.613 428.696C259.591 432.189 262.552 435.703 265.495 439.24C268.792 442.464 272.067 445.709 275.325 448.98C277.705 453.006 280.073 457.054 282.43 461.121C286.222 463.844 290.002 466.592 293.764 469.361C296.925 472.714 300.07 476.095 303.208 479.493C306.409 482.874 309.6 486.28 312.781 489.707C316.613 492.225 320.433 494.764 324.247 497.323C327.594 500.632 330.936 503.967 334.273 507.322C338.325 509.364 342.368 511.419 346.409 513.487C350.263 515.867 354.112 518.26 357.956 520.668C361.948 522.667 365.936 524.678 369.92 526.697C373.639 529.671 377.355 532.663 381.071 535.672C385.211 537.251 389.347 538.838 393.483 540.432C397.723 541.267 401.964 542.104 406.204 542.945C410.245 545.139 414.286 547.342 418.327 549.556C422.529 550.613 426.729 551.672 430.926 552.732C435.141 553.569 439.353 554.406 443.563 555.242C447.753 555.158 451.939 555.071 456.131 554.984C460.318 555.373 464.508 555.759 468.694 556.151C472.81 555.777 476.925 555.409 481.045 555.035C485.275 555.398 489.506 555.762 493.736 556.128C497.785 555.327 501.841 554.526 505.902 553.725C509.762 552.189 513.629 550.654 517.508 549.121C521.503 548.138 525.508 547.153 529.521 546.168C533.618 545.338 537.723 544.507 541.836 543.672C545.536 541.645 549.252 539.616 552.986 537.584C557.04 536.31 561.109 535.035 565.191 533.758C568.774 531.334 572.377 528.906 576.003 526.477C579.297 523.498 582.611 520.514 585.954 517.525C589.782 515.393 593.634 513.254 597.506 511.107C600.5 507.603 603.517 504.089 606.563 500.571C609.969 497.607 613.401 494.633 616.858 491.649C619.911 488.164 622.993 484.67 626.094 481.164C629.165 477.635 632.262 474.093 635.382 470.541C638.478 466.943 641.603 463.334 644.748 459.708C647.786 455.944 650.844 452.159 653.923 448.358C656.523 444.169 659.138 439.961 661.777 435.741C664.526 431.57 667.292 427.383 670.079 423.176C671.829 418.405 673.595 413.617 675.369 408.821C677.15 404.089 678.944 399.345 680.746 394.587C682.944 389.978 685.155 385.351 687.377 380.709C689.316 375.931 691.264 371.137 693.222 366.331C694.893 361.418 696.572 356.494 698.256 351.555C698.555 346.434 698.849 341.313 699.146 336.192C699.95 331.166 700.753 326.137 701.557 321.103C702.783 316.041 704.009 310.974 705.24 305.896C705.314 300.855 705.388 295.813 705.46 290.774C705.493 285.755 705.524 280.737 705.557 275.721C704.989 270.83 704.421 265.942 703.85 261.062C703.638 256.097 703.423 251.137 703.208 246.178C702.041 241.51 700.871 236.849 699.699 232.192C698.793 227.452 697.89 222.715 696.979 217.983C696.126 213.187 695.272 208.396 694.414 203.606C692.961 199.071 691.502 194.539 690.038 190.009C688.298 185.617 686.55 181.226 684.799 176.837C682.77 172.606 680.735 168.379 678.693 164.148C676.218 160.22 673.736 156.292 671.249 152.361C668.408 148.724 665.565 145.082 662.709 141.443C659.817 137.853 656.915 134.26 654 130.664C651.062 127.079 648.111 123.491 645.145 119.903C641.222 117.343 637.288 114.782 633.339 112.22C629.833 109.21 626.312 106.201 622.775 103.194C619.259 100.115 615.725 97.0388 612.172 93.9627C607.873 91.9435 603.556 89.9269 599.228 87.9102C595.417 85.0619 591.586 82.2135 587.735 79.3677C583.353 77.3894 578.957 75.4112 574.54 73.4381C569.91 71.923 565.263 70.4131 560.602 68.9057C555.691 68.1022 550.773 67.3037 545.844 66.5078C541.301 64.5782 536.74 62.6562 532.162 60.742C527.054 60.6396 521.946 60.5398 516.83 60.4451C511.873 59.7925 506.906 59.145 501.931 58.5027C496.871 58.4054 491.809 58.3107 486.742 58.2186C481.693 57.479 476.636 56.7471 471.568 56.0228C466.427 56.2096 461.286 56.399 456.139 56.5884C451.01 57.264 445.884 57.9397 440.758 58.6127C435.771 60.1354 430.79 61.6479 425.818 63.1527C420.851 64.4169 415.891 65.6735 410.934 66.9249C406.071 68.4553 401.214 69.9755 396.362 71.4854C391.561 73.1079 386.765 74.7176 381.974 76.3171C377.042 77.6402 372.113 78.9531 367.19 80.2608C362.611 82.3517 358.038 84.4246 353.472 86.4848C348.738 88.2967 344.006 90.0958 339.279 91.8846C335.364 94.884 331.451 97.8603 327.543 100.814C323.241 103.201 318.941 105.566 314.645 107.92C310.742 110.748 306.842 113.556 302.941 116.348C298.632 118.764 294.325 121.167 290.018 123.555C287.172 127.265 284.323 130.961 281.475 134.638C277.662 137.487 273.846 140.32 270.03 143.142C267.01 146.574 263.991 149.991 260.971 153.4C257.454 156.509 253.936 159.608 250.419 162.7C247.906 166.398 245.391 170.091 242.88 173.773C240.7 177.597 238.519 181.412 236.344 185.221C233.915 188.913 231.486 192.599 229.063 196.281C226.97 200.112 224.876 203.941 222.79 207.767C221.403 211.823 220.019 215.877 218.639 219.931C217.344 223.987 216.052 228.043 214.765 232.097C214.089 236.271 213.419 240.445 212.751 244.619C211.696 248.709 210.65 252.798 209.608 256.888C208.252 260.985 206.903 265.082 205.565 269.18C205.306 273.418 205.055 277.658 204.804 281.899C205.936 286.152 207.059 290.411 208.18 294.672C208.531 298.879 208.879 303.089 209.229 307.299Z" fill="white"/>
</g>
<g opacity="0.1">
<path d="M249.964 307.196C250.662 311.273 251.358 315.355 252.055 319.437C252.589 323.549 253.124 327.665 253.657 331.782C255.159 335.754 256.648 339.731 258.127 343.716C259.507 347.708 260.879 351.705 262.238 355.711C263.405 359.813 264.566 363.923 265.718 368.038C268.088 371.746 270.435 375.467 272.763 379.206C275.33 382.787 277.874 386.382 280.4 389.999C282.737 393.676 285.055 397.377 287.358 401.093C289.472 404.97 291.568 408.86 293.651 412.773C296.387 416.294 299.1 419.839 301.797 423.409C304.95 426.597 308.083 429.812 311.2 433.049C314.135 436.45 317.055 439.874 319.962 443.329C323.369 446.244 326.76 449.187 330.14 452.153C333.493 455.13 336.833 458.132 340.165 461.159C343.504 464.212 346.839 467.291 350.161 470.395C353.823 472.962 357.477 475.549 361.127 478.157C365.053 480.112 368.973 482.08 372.891 484.064C376.643 486.408 380.387 488.77 384.129 491.142C388.016 493.131 391.901 495.132 395.783 497.144C399.668 499.27 403.553 501.41 407.435 503.56C411.599 504.033 415.763 504.504 419.927 504.98C423.911 506.756 427.893 508.542 431.873 510.331C435.96 510.431 440.047 510.526 444.136 510.62C448.183 511.183 452.229 511.752 456.275 512.32C460.331 512.773 464.387 513.226 468.444 513.679C472.418 513.308 476.398 512.934 480.38 512.56C484.474 512.811 488.569 513.064 492.666 513.318C496.467 512.046 500.28 510.777 504.103 509.507C508.057 508.824 512.021 508.138 515.991 507.452C519.955 506.582 523.929 505.709 527.911 504.837C531.333 502.436 534.778 500.036 538.243 497.635C542.002 496.018 545.779 494.398 549.575 492.773C553.273 490.853 556.991 488.931 560.73 487.002C564.057 484.304 567.412 481.597 570.793 478.884C574.176 476.192 577.585 473.492 581.022 470.779C583.886 467.311 586.78 463.831 589.703 460.34C592.743 457.059 595.814 453.768 598.911 450.459C602.299 447.416 605.721 444.353 609.168 441.274C611.492 437.126 613.841 432.965 616.211 428.788C619.192 425.126 622.202 421.441 625.237 417.737C628.011 413.776 630.811 409.794 633.634 405.791C635.1 401.036 636.577 396.271 638.064 391.496C640.935 387.368 643.829 383.214 646.744 379.035C648.482 374.339 650.232 369.63 651.991 364.906C653.396 360.087 654.808 355.258 656.226 350.416C656.723 345.453 657.219 340.489 657.718 335.521C659.346 330.679 660.984 325.822 662.629 320.952C663.353 315.995 664.078 311.035 664.804 306.07C664.561 301.18 664.321 296.294 664.075 291.411C663.827 286.579 663.579 281.755 663.325 276.929C663.397 272.033 663.471 267.137 663.54 262.239C662.519 257.638 661.493 253.039 660.467 248.448C659.164 244 657.859 239.557 656.554 235.119C655.809 230.439 655.062 225.758 654.314 221.082C652.927 216.665 651.54 212.248 650.145 207.836C648.592 203.475 647.036 199.114 645.472 194.753C642.9 191.053 640.318 187.355 637.728 183.657C635.182 179.969 632.63 176.279 630.066 172.591C627.745 168.67 625.414 164.75 623.067 160.829C620.106 157.42 617.135 154.011 614.145 150.602C610.86 147.488 607.556 144.373 604.239 141.259C600.477 138.682 596.7 136.102 592.904 133.525C588.776 131.465 584.633 129.41 580.474 127.355C576.707 124.729 572.922 122.106 569.114 119.485C564.774 117.755 560.415 116.028 556.039 114.303C551.904 112.048 547.748 109.796 543.566 107.549C538.714 106.922 533.849 106.295 528.976 105.673C524.193 105.008 519.397 104.348 514.593 103.69C510.012 102.009 505.414 100.335 500.792 98.6741C495.842 98.4719 490.885 98.2749 485.92 98.083C480.922 98.7432 475.922 99.4035 470.926 100.061C465.971 99.8513 461.009 99.6492 456.042 99.4521C451.1 100.261 446.163 101.067 441.227 101.865C436.305 102.692 431.384 103.516 426.468 104.335C421.541 105.236 416.623 106.137 411.704 107.027C406.931 108.504 402.171 109.97 397.414 111.421C392.932 113.52 388.459 115.601 383.993 117.663C379.402 119.424 374.816 121.172 370.235 122.902C365.708 124.806 361.186 126.695 356.669 128.565C352.746 131.306 348.825 134.024 344.909 136.719C341.081 139.457 337.257 142.173 333.437 144.87C329.424 147.373 325.416 149.86 321.408 152.33C317.529 154.991 313.652 157.638 309.774 160.269C307.067 163.851 304.359 167.414 301.654 170.961C297.884 173.732 294.115 176.494 290.348 179.242C287.745 182.782 285.142 186.308 282.54 189.824C280.694 193.691 278.852 197.553 277.009 201.405C274.161 204.762 271.312 208.112 268.469 211.457C267.225 215.46 265.984 219.46 264.746 223.455C262.696 227.148 260.651 230.835 258.614 234.523C257.239 238.428 255.875 242.334 254.514 246.239C253.378 250.206 252.249 254.173 251.128 258.137C250.204 262.16 249.288 266.183 248.38 270.203C248.144 274.313 247.914 278.421 247.689 282.531C248.436 286.656 249.181 290.782 249.925 294.91C249.933 299.004 249.946 303.099 249.964 307.196Z" fill="white"/>
</g>
<g opacity="0.4">
<path d="M297.649 306.633C297.649 394.177 368.617 465.148 456.164 465.148C543.709 465.148 614.68 394.177 614.68 306.633C614.68 219.088 543.709 148.117 456.164 148.117C368.617 148.117 297.649 219.088 297.649 306.633Z" fill="#FFF6D4"/>
</g>
<path d="M1265.3 -13.8812L1250.97 -13.4129L1236.71 -12.1205L1222.48 -10.2369L1208.06 -11.473L1193.93 -8.19983L1179.57 -8.45575L1165.21 -8.78844L1150.99 -6.95863L1136.71 -5.80956L1122.4 -5.38729L1108.08 -5.08275L1093.87 -2.97143L1079.53 -3.08147L1065.31 -1.13649L1051.03 -0.217746L1036.66 -0.750056L1022.47 1.60951L1008.24 3.27042L993.955 4.04073L979.601 3.81297L965.341 4.91853L950.999 4.79825L936.821 7.24227L922.587 8.91341L908.297 9.65557L893.935 9.29473L879.585 9.09511L865.336 10.4771L851.094 12.051L836.745 11.7771L822.592 14.7458L808.235 14.4259L793.912 14.5769L779.754 17.4483L765.377 16.7701L751.079 17.3562L736.937 20.4579L722.533 19.3626L708.258 20.3274L694.055 22.3926L679.833 24.1559L665.43 23.1169L651.204 24.8827L636.921 25.6632L622.677 27.0196L608.297 26.3389L594.127 28.9697L579.813 29.2717L565.535 30.129L551.181 29.7733L536.919 30.9352L522.687 32.573L508.414 33.5225L494.106 33.8117L479.867 35.2883L465.569 35.8667L451.314 37.1412L437.016 37.6965L422.856 40.3376L408.558 40.8264L394.191 40.2352L379.918 41.2077L365.745 43.7567L351.421 43.9204L337.185 45.3229L322.807 44.5321L308.652 47.2116L294.349 47.6952L279.992 47.2781L265.745 48.6882L251.542 50.6869L237.236 51.0145L222.94 51.4879L208.668 52.289L194.37 52.765L180.115 53.9345L165.894 55.6466L151.526 55.1629L137.402 58.3824L123.004 57.2947L108.729 58.1085L94.4719 59.0938L80.2966 61.6377L66.0421 62.8789L51.5263 62.6562L65.9601 64.0279L80.2941 63.7029L94.5641 64.6549L108.844 65.5276L123.196 64.5116L137.402 67.0529L151.754 65.9038L165.991 67.6185L180.315 67.1834L194.526 69.7016L208.816 70.1162L223.127 70.0394L237.4 70.8686L251.662 72.0279L266.006 71.0734L280.302 71.2039L294.533 73.0542L308.888 71.772L323.153 72.7061L337.351 75.2448L351.7 74.0599L365.963 74.9352L380.194 76.6754L394.503 76.4323L408.814 76.3222L423.094 76.9032L437.382 77.2154L451.636 78.6076L465.86 80.4707L480.13 81.4022L494.413 81.8398L508.691 82.5129L523.05 81.1258L537.287 82.7407L551.58 82.9838L565.858 83.5468L580.184 82.9991L594.434 84.3325L608.675 85.7784L622.968 86.0241L637.269 86.0855L651.524 87.1425L665.819 87.2934L680.135 87.0734L694.413 87.5877L708.673 88.5065L722.884 90.7253L737.203 90.3824L751.519 90.019L765.709 92.6575L779.984 93.2282L794.331 92.1482L808.609 92.6831L822.818 94.9275L837.082 95.6901L851.447 93.9831L865.643 96.6217L880.005 95.0759L894.208 97.4713L908.455 98.692L922.797 97.4943L937.031 99.0247L951.291 100.051L965.581 100.343L979.923 99.1936L994.101 102.144L1008.42 101.551L1022.65 103.068L1036.92 103.772L1051.26 102.759L1065.53 103.414L1079.8 104.21L1094.06 104.942L1108.29 106.531L1122.61 105.745L1136.89 106.024L1151.09 108.512L1165.4 108.074L1179.63 109.883L1194.01 107.808L1208.24 109.548L1222.48 110.643L1236.79 110.152L1251.09 110.157L1265.33 111.831L1279.59 113.159V-14.8639L1265.3 -13.8812Z" fill="#FD6E26"/>
<g opacity="0.2">
<path d="M0 122.414L14.293 122.785L28.604 122.414L42.9047 122.975L57.2207 122.603L71.5342 122.826L85.8477 122.698L100.146 123.689L114.47 122.632L128.763 123.607L143.056 124.784L157.379 123.955L171.683 124.858L186.009 124.126L200.299 125.611L214.641 123.277L228.919 125.631L243.235 125.245L257.559 124.753L271.859 125.718L286.183 124.92L300.479 126.094L314.79 126.181L329.1 126.478L343.417 126.504L357.727 126.803L372.054 125.672L386.354 126.742L400.678 126.286L414.966 128.257L429.303 126.44L443.621 126.204L457.917 127.975L472.218 129.158L486.528 129.426L500.86 128.134L515.166 129.109L529.502 127.44L543.788 129.946L558.129 128.044L572.417 130.186L586.751 128.968L601.062 129.475L615.386 128.927L629.704 128.909L644.008 129.913L658.337 129.242L672.648 129.813L686.958 130.583L701.282 129.979L715.593 130.657L729.914 130.516L744.225 131.23L758.531 132.011L772.855 130.921L787.161 131.914L801.479 131.635L815.77 133.649L830.086 133.434L844.399 133.969L858.726 133.406L873.034 134.33L887.355 134.263L901.699 132.456L915.992 134.624L930.329 133.508L944.648 134.046L958.984 132.958L973.3 133.106L987.593 135.225L1001.93 133.943L1016.25 134.232L1030.56 135.834L1044.9 134.926L1059.23 135.172L1074.47 135.637L1059.24 135.243L1044.95 135.985L1030.65 136.592L1016.34 136.459L1002.03 137.349L987.695 135.709L973.397 136.748L959.107 138.02L944.804 138.227L930.488 137.795L916.174 137.631L901.855 137.575L887.55 138.076L873.254 139.236L858.943 139.243L844.619 138.186L830.314 138.749L815.998 138.583L801.697 139.65L787.396 140.646L773.054 138.327L758.754 139.305L744.443 139.381L730.127 139.543L715.826 140.433L701.497 139.312L687.202 140.769L672.873 139.747L658.585 141.782L644.269 141.662L629.955 141.695L615.642 142.268L601.318 141.442L587.004 141.416L572.711 143.422L558.375 141.91L544.079 143.369L529.753 142.675L515.429 142.13L501.118 142.57L486.823 144.244L472.509 144.479L458.17 142.865L443.857 143.184L429.541 143.246L415.23 144.149L400.911 143.804L386.585 143.499L372.274 144.016L357.976 145.616L343.66 145.81L329.323 144.377L315.012 144.881L300.706 145.38L286.398 146.017L272.079 145.762L257.784 147.195L243.45 145.956L229.131 146.046L214.825 146.772L200.522 148.011L186.196 147.814L171.867 147.128L157.561 148.377L143.219 147.01L128.909 147.985L114.603 149.178L100.287 149.567L85.9399 147.397L71.6238 147.799L57.3001 147.796L42.9763 148.303L28.65 148.165L14.3289 149.173L0 150.55V122.414Z" fill="white"/>
</g>
<g opacity="0.2">
<path d="M0 492.277L14.1472 495.105L28.4197 495.244L42.6616 495.853L56.9239 496.15L71.0915 498.005L85.3999 497.557L99.5752 499.277L113.855 499.274L128.069 500.375L142.29 501.373L156.484 502.783L170.654 504.638L184.965 504.147L199.235 504.413L213.362 506.898L227.552 508.382L241.812 508.782L256.072 509.061L270.267 510.437L284.55 510.33L298.841 510.21L313.047 511.379L327.271 512.285L341.369 515.223L355.713 514.284L369.84 516.748L384.12 516.815L398.334 518.015L412.514 519.681L426.887 518.304L440.973 521.549L455.202 522.519L469.566 521.242L483.798 522.11L497.973 523.894L512.189 525.004L526.383 526.558L540.74 525.521L554.861 528.206L569.159 528.257L584.069 529.217L569.18 530.005L554.966 530.903L540.745 531.571L526.508 531.842L512.223 530.959L498.027 532.257L483.806 533.035L469.582 533.68L455.337 533.762L441.185 536.237L426.933 536.155L412.658 535.627L398.413 535.717L384.238 537.647L369.945 536.585L355.765 538.35L341.561 539.569L327.322 539.735L313.113 540.759L298.879 540.953L284.678 542.253L270.436 542.381L256.22 543.192L241.991 543.63L227.695 542.622L213.518 544.367L199.289 544.986L185.067 545.833L170.787 545.16L156.568 545.995L142.388 547.906L128.156 548.505L113.922 549.027L99.6136 547.707L85.4203 549.204L71.1478 548.674L56.9776 550.857L42.6769 549.869L28.5349 552.789L14.2035 551.162L0 552.789V492.277Z" fill="white"/>
</g>
</g>
</g>
<defs>
<linearGradient id="paint0_linear_3_18" x1="1279.59" y1="-248.001" x2="1279.59" y2="1031.59" gradientUnits="userSpaceOnUse">
<stop stop-color="#FF6E28"/>
<stop offset="1" stop-color="#FFD977"/>
</linearGradient>
<clipPath id="clip0_3_18">
<rect width="1280" height="1280" fill="white" transform="translate(0 -248)"/>
</clipPath>
</defs>
</svg>
