<svg width="1280" height="349" viewBox="0 0 1280 349" fill="none" xmlns="http://www.w3.org/2000/svg">
<path d="M617.77 58.3762C614.37 57.3103 610.409 54.9544 607.494 53.0224H625.424C625.634 55.6799 625.971 57.6982 625.971 57.6982L627.342 60.1895C627.342 60.1895 624.035 60.3407 617.77 58.3762ZM678.967 53.7382C675.486 55.249 671.778 57.4616 671.778 57.4616C671.778 57.4616 671.499 57.8151 662.988 58.8713C654.476 59.9265 651.909 56.4081 651.909 56.4081C651.909 56.4081 651.386 55.0063 650.479 53.0224H680.591C679.987 53.2915 679.434 53.536 678.967 53.7382ZM846.467 236.897C830.273 235.917 816.149 237.54 801.309 239.055V114.647L855.552 106.773V95.6767L853.822 94.457L801.309 102.858V70.2023L798.942 69.6087L788.16 71.6173V104.714L734.445 113.105V122.321L736.874 123.61L788.16 116.334V240.276C779.95 240.924 771.315 241.323 761.832 241.062C729.28 240.171 711.805 215.477 662.806 216.666C658.37 216.774 654.015 217.056 649.752 217.479L649.913 170.73C650.15 169.85 650.405 168.858 650.663 167.779C651.636 163.699 656.057 150.402 656.753 141.938C657.45 133.477 653.969 129.699 653.969 126.677C653.969 123.655 657.102 115.192 657.276 107.789C657.45 100.384 655.013 96.9087 654.317 90.2596C653.62 83.6114 655.535 74.696 655.709 72.8827C655.883 71.0694 657.407 69.9895 658.494 69.6087C660.681 68.8428 661.57 68.8612 666.721 67.0426C670.452 65.7253 673.346 64.386 675.156 63.2542C676.363 62.5005 677.529 62.0705 681.165 60.5852C683.72 59.5405 688.599 55.7846 692.003 53.0224H718.698V42.1363H650.32V0H637.781V39.003C633.764 37.8053 630.051 38.6416 627.322 40.9236C626.957 41.2279 626.654 41.643 626.401 42.1363H569.508V53.0224H592.999C596.514 54.8524 601.178 57.1837 601.932 57.6208C602.978 58.2249 605.413 61.0961 611.157 64.2699C616.9 67.4428 625.253 69.5586 626.819 70.314C628.386 71.0694 629.778 79.9847 629.605 88.5976C629.43 97.2113 627.516 98.7221 627.342 107.637C627.168 116.553 634.129 126.979 634.477 129.409C634.825 131.838 631.519 137.103 631.345 143.904C631.202 149.467 636.023 166.56 637.781 172.592V219.051C600.702 225.081 571.953 240.275 558.983 240.764C543.221 241.36 540.66 233.776 503.496 230.732C502.486 230.648 501.438 230.582 500.367 230.526V96.8032L554.649 106.508L557.219 105.144V95.4226L500.367 84.4547V48.0336L488.956 44.7481L485.895 45.376V82.0285L430.869 71.0483L429.039 72.3375V83.5023L485.895 94.5537V230.431C445.741 231.619 387 242.908 387 242.908V348.599H893.409V246.12C893.409 246.12 875.934 238.682 846.467 236.897Z" fill="#0C004D"/>
<path d="M892 246C1038.33 259.791 1245 230 1280 246C1315 262 1280 349 1280 349H892C892 349 745.673 232.209 892 246Z" fill="#0C004D"/>
<path d="M5.72205e-06 243C44.5 279 354 246 387 243C420 240 387 349 387 349H5.72205e-06C5.72205e-06 349 -44.5 207 5.72205e-06 243Z" fill="#0C004D"/>
</svg>
